<svg width="32" height="41" viewBox="0 0 32 41" fill="none" xmlns="http://www.w3.org/2000/svg">
<path d="M18 14.35H29L18 3.075V14.35ZM4 0H20L32 12.3V36.9C32 37.9874 31.5786 39.0302 30.8284 39.7991C30.0783 40.568 29.0609 41 28 41H4C2.93913 41 1.92172 40.568 1.17157 39.7991C0.421427 39.0302 0 37.9874 0 36.9V4.1C0 1.8245 1.78 0 4 0ZM20 36.9V34.85C20 32.1235 14.66 30.75 12 30.75C9.34 30.75 4 32.1235 4 34.85V36.9H20ZM12 20.5C10.9391 20.5 9.92172 20.932 9.17157 21.7009C8.42143 22.4698 8 23.5126 8 24.6C8 25.6874 8.42143 26.7302 9.17157 27.4991C9.92172 28.268 10.9391 28.7 12 28.7C13.0609 28.7 14.0783 28.268 14.8284 27.4991C15.5786 26.7302 16 25.6874 16 24.6C16 23.5126 15.5786 22.4698 14.8284 21.7009C14.0783 20.932 13.0609 20.5 12 20.5Z" fill="#FFFDD0"/>
</svg>
