<svg width="36" height="37" viewBox="0 0 36 37" fill="none" xmlns="http://www.w3.org/2000/svg">
<path d="M32 0C33.0609 0 34.0783 0.433134 34.8284 1.20412C35.5786 1.9751 36 3.02078 36 4.11111V32.8889C36 33.9792 35.5786 35.0249 34.8284 35.7959C34.0783 36.5669 33.0609 37 32 37H4C2.93913 37 1.92172 36.5669 1.17157 35.7959C0.421427 35.0249 0 33.9792 0 32.8889V4.11111C0 3.02078 0.421427 1.9751 1.17157 1.20412C1.92172 0.433134 2.93913 0 4 0H32ZM31 31.8611V20.9667C31 19.1894 30.3131 17.485 29.0903 16.2283C27.8676 14.9716 26.2092 14.2656 24.48 14.2656C22.78 14.2656 20.8 15.3344 19.84 16.9378V14.6561H14.26V31.8611H19.84V21.7272C19.84 20.1444 21.08 18.8494 22.62 18.8494C23.3626 18.8494 24.0748 19.1526 24.5999 19.6923C25.125 20.232 25.42 20.964 25.42 21.7272V31.8611H31ZM7.76 11.4289C8.65113 11.4289 9.50576 11.0651 10.1359 10.4174C10.766 9.76981 11.12 8.89144 11.12 7.97556C11.12 6.06389 9.62 4.50167 7.76 4.50167C6.86357 4.50167 6.00385 4.86766 5.36998 5.51915C4.73611 6.17063 4.38 7.05422 4.38 7.97556C4.38 9.88722 5.9 11.4289 7.76 11.4289ZM10.54 31.8611V14.6561H5V31.8611H10.54Z" fill="#FFFDD0"/>
</svg>
