<svg width="41" height="41" viewBox="0 0 41 41" fill="none" xmlns="http://www.w3.org/2000/svg">
<path d="M20.5 0C31.8222 0 41 9.17784 41 20.5C41 31.8221 31.8222 41 20.5 41C16.8772 41.0062 13.318 40.0474 10.1885 38.2222L0.00823168 41L2.77983 30.8156C0.953196 27.6851 -0.00631733 24.1244 3.13008e-05 20.5C3.13008e-05 9.17784 9.17788 0 20.5 0ZM13.5136 10.865L13.1036 10.8814C12.8385 10.8997 12.5795 10.9693 12.341 11.0864C12.1188 11.2125 11.9158 11.3699 11.7383 11.5538C11.4923 11.7854 11.3529 11.9863 11.2033 12.1811C10.445 13.1669 10.0368 14.3773 10.043 15.621C10.0471 16.6255 10.3095 17.6033 10.7195 18.5176C11.5579 20.3667 12.9376 22.3245 14.758 24.1387C15.1967 24.5754 15.6272 25.0141 16.0905 25.422C18.3525 27.4134 21.0479 28.8496 23.9625 29.6163L25.1269 29.7947C25.5061 29.8152 25.8854 29.7865 26.2667 29.768C26.8636 29.7365 27.4464 29.5749 27.9743 29.2945C28.2425 29.1558 28.5045 29.0053 28.7595 28.8435C28.7595 28.8435 28.8462 28.7847 29.0157 28.659C29.2925 28.454 29.4626 28.3084 29.6922 28.0686C29.8644 27.8909 30.0079 27.6845 30.1227 27.4495C30.2826 27.1153 30.4425 26.4778 30.5081 25.9468C30.5573 25.5409 30.543 25.3195 30.5368 25.1822C30.5286 24.9628 30.3462 24.7353 30.1473 24.6389L28.9542 24.1039C28.9542 24.1039 27.1707 23.3269 26.0801 22.8308C25.966 22.7811 25.8437 22.7527 25.7193 22.7468C25.579 22.7321 25.4372 22.7478 25.3035 22.7927C25.1699 22.8376 25.0474 22.9107 24.9444 23.0071C24.9342 23.003 24.7968 23.1199 23.3147 24.9157C23.2296 25.03 23.1124 25.1164 22.9781 25.1638C22.8437 25.2113 22.6983 25.2177 22.5603 25.1822C22.4267 25.1466 22.2958 25.1014 22.1687 25.0469C21.9145 24.9403 21.8264 24.8993 21.6521 24.8255C20.4752 24.3128 19.3857 23.619 18.4234 22.7693C18.1651 22.5438 17.9252 22.2978 17.6792 22.06C16.8728 21.2876 16.1699 20.4139 15.5882 19.4606L15.4673 19.2659C15.3817 19.1343 15.3116 18.9933 15.2582 18.8456C15.1803 18.5443 15.3832 18.3024 15.3832 18.3024C15.3832 18.3024 15.8814 17.7571 16.113 17.4619C16.3385 17.1749 16.5292 16.8961 16.6522 16.6972C16.8941 16.3077 16.9699 15.908 16.8428 15.5984C16.2688 14.1962 15.6757 12.8016 15.0634 11.4144C14.9425 11.1397 14.5837 10.9429 14.2578 10.9039C14.1471 10.8903 14.0364 10.8793 13.9257 10.8711C13.6504 10.8554 13.3744 10.8581 13.0995 10.8793L13.5136 10.865Z" fill="#FFFDD0"/>
</svg>
